# xmcd
#
# Track frame offsets:
#	150
#	10386
#	23097
#	32861
#	45269
#	62100
#	73922
#	86490
#	109441
#	121357
#	131037
#	139424
#	152920
#	164438
#	173000
#
# Disc length: 2421 seconds
# Revision: 1
# Processed by: cddbd v1.5.2PL0 Copyright (c) Steve Scherf et al.
# Submitted via: dBpowerAMP V12.0
#
DISCID=d409730f
DTITLE=Daniel Greeson - Daniel Greeson
DYEAR=2014
DGENRE=Bluegrass
TTITLE0=The Old Brown County Barn
TTITLE1=Two O'Clock
TTITLE2=Magic Melody Reel
TTITLE3=Twinkle Little Star
TTITLE4=Maiden's Prayer
TTITLE5=Wheel Hoss
TTITLE6=Cattle in the Cane
TTITLE7=Martin Waltz
TTITLE8=Jerusalem Ridge
TTITLE9=Snowflake Reel
TTITLE10=Roanoke
TTITLE11=Sally Goodin
TTITLE12=Big Sandy River
TTITLE13=Panhandle Country
TTITLE14=Dry and Dusty
EXTD=
EXTT0=
EXTT1=
EXTT2=
EXTT3=
EXTT4=
EXTT5=
EXTT6=
EXTT7=
EXTT8=
EXTT9=
EXTT10=
EXTT11=
EXTT12=
EXTT13=
EXTT14=
PLAYORDER=
